<svg width="496" height="268" viewBox="0 0 496 268" fill="none" xmlns="http://www.w3.org/2000/svg" role="img" aria-labelledby="ceph-erasure-title ceph-erasure-description">
<title id="ceph-erasure-title">Ceph erasure-coded data protection</title>
<desc id="ceph-erasure-description">A source object is encoded into data and parity shards that tolerate failures with lower storage overhead.</desc>
<defs>
  <linearGradient id="ceph-erasure-surface-top" x1="0" y1="0" x2="1" y2="1">
    <stop stop-color="#FFFFFF"/><stop offset="0.55" stop-color="#F4F7FB"/><stop offset="1" stop-color="#E0E7EF"/>
  </linearGradient>
  <linearGradient id="ceph-erasure-surface-left" x1="0" y1="0" x2="1" y2="1">
    <stop stop-color="#E8EDF3"/><stop offset="1" stop-color="#C6CFD9"/>
  </linearGradient>
  <linearGradient id="ceph-erasure-surface-right" x1="0" y1="0" x2="1" y2="1">
    <stop stop-color="#DDE4EC"/><stop offset="1" stop-color="#AEB8C4"/>
  </linearGradient>
  
  <linearGradient id="ceph-erasure-blue-top" x1="0" y1="0" x2="1" y2="1">
    <stop stop-color="#D0E2FF"/><stop offset="0.5" stop-color="#78A9FF"/><stop offset="1" stop-color="#0F62FE"/>
  </linearGradient>
  <linearGradient id="ceph-erasure-blue-left" x1="0" y1="0" x2="0.8" y2="1">
    <stop stop-color="#D0E2FF" stop-opacity="0.92"/><stop offset="1" stop-color="#78A9FF" stop-opacity="0.66"/>
  </linearGradient>
  <linearGradient id="ceph-erasure-blue-right" x1="0" y1="0" x2="1" y2="1">
    <stop stop-color="#78A9FF" stop-opacity="0.9"/><stop offset="1" stop-color="#0F62FE" stop-opacity="0.78"/>
  </linearGradient>
  
  <linearGradient id="ceph-erasure-cyan-top" x1="0" y1="0" x2="1" y2="1">
    <stop stop-color="#D9FBFB"/><stop offset="0.5" stop-color="#3DDBD9"/><stop offset="1" stop-color="#007D79"/>
  </linearGradient>
  <linearGradient id="ceph-erasure-cyan-left" x1="0" y1="0" x2="0.8" y2="1">
    <stop stop-color="#D9FBFB" stop-opacity="0.92"/><stop offset="1" stop-color="#3DDBD9" stop-opacity="0.66"/>
  </linearGradient>
  <linearGradient id="ceph-erasure-cyan-right" x1="0" y1="0" x2="1" y2="1">
    <stop stop-color="#3DDBD9" stop-opacity="0.9"/><stop offset="1" stop-color="#007D79" stop-opacity="0.78"/>
  </linearGradient>
  
  <linearGradient id="ceph-erasure-purple-top" x1="0" y1="0" x2="1" y2="1">
    <stop stop-color="#E8DAFF"/><stop offset="0.5" stop-color="#A56EFF"/><stop offset="1" stop-color="#6929C4"/>
  </linearGradient>
  <linearGradient id="ceph-erasure-purple-left" x1="0" y1="0" x2="0.8" y2="1">
    <stop stop-color="#E8DAFF" stop-opacity="0.92"/><stop offset="1" stop-color="#A56EFF" stop-opacity="0.66"/>
  </linearGradient>
  <linearGradient id="ceph-erasure-purple-right" x1="0" y1="0" x2="1" y2="1">
    <stop stop-color="#A56EFF" stop-opacity="0.9"/><stop offset="1" stop-color="#6929C4" stop-opacity="0.78"/>
  </linearGradient>
  
  <linearGradient id="ceph-erasure-red-top" x1="0" y1="0" x2="1" y2="1">
    <stop stop-color="#FFF1F1"/><stop offset="0.5" stop-color="#FA4D56"/><stop offset="1" stop-color="#A2191F"/>
  </linearGradient>
  <linearGradient id="ceph-erasure-red-left" x1="0" y1="0" x2="0.8" y2="1">
    <stop stop-color="#FFF1F1" stop-opacity="0.92"/><stop offset="1" stop-color="#FA4D56" stop-opacity="0.66"/>
  </linearGradient>
  <linearGradient id="ceph-erasure-red-right" x1="0" y1="0" x2="1" y2="1">
    <stop stop-color="#FA4D56" stop-opacity="0.9"/><stop offset="1" stop-color="#A2191F" stop-opacity="0.78"/>
  </linearGradient>
  
  <linearGradient id="ceph-erasure-orange-top" x1="0" y1="0" x2="1" y2="1">
    <stop stop-color="#FFF2E8"/><stop offset="0.5" stop-color="#FF832B"/><stop offset="1" stop-color="#8A3800"/>
  </linearGradient>
  <linearGradient id="ceph-erasure-orange-left" x1="0" y1="0" x2="0.8" y2="1">
    <stop stop-color="#FFF2E8" stop-opacity="0.92"/><stop offset="1" stop-color="#FF832B" stop-opacity="0.66"/>
  </linearGradient>
  <linearGradient id="ceph-erasure-orange-right" x1="0" y1="0" x2="1" y2="1">
    <stop stop-color="#FF832B" stop-opacity="0.9"/><stop offset="1" stop-color="#8A3800" stop-opacity="0.78"/>
  </linearGradient>
  
  <linearGradient id="ceph-erasure-green-top" x1="0" y1="0" x2="1" y2="1">
    <stop stop-color="#DEFBE6"/><stop offset="0.5" stop-color="#42BE65"/><stop offset="1" stop-color="#0E6027"/>
  </linearGradient>
  <linearGradient id="ceph-erasure-green-left" x1="0" y1="0" x2="0.8" y2="1">
    <stop stop-color="#DEFBE6" stop-opacity="0.92"/><stop offset="1" stop-color="#42BE65" stop-opacity="0.66"/>
  </linearGradient>
  <linearGradient id="ceph-erasure-green-right" x1="0" y1="0" x2="1" y2="1">
    <stop stop-color="#42BE65" stop-opacity="0.9"/><stop offset="1" stop-color="#0E6027" stop-opacity="0.78"/>
  </linearGradient>
  <linearGradient id="ceph-erasure-glass-blue" x1="0" y1="0" x2="1" y2="1">
    <stop stop-color="#FFFFFF" stop-opacity="0.94"/><stop offset="0.5" stop-color="#D0E2FF" stop-opacity="0.76"/><stop offset="1" stop-color="#78A9FF" stop-opacity="0.46"/>
  </linearGradient>
  <linearGradient id="ceph-erasure-glass-cyan" x1="0" y1="0" x2="1" y2="1">
    <stop stop-color="#FFFFFF" stop-opacity="0.94"/><stop offset="0.5" stop-color="#D9FBFB" stop-opacity="0.78"/><stop offset="1" stop-color="#3DDBD9" stop-opacity="0.46"/>
  </linearGradient>
  <linearGradient id="ceph-erasure-glass-red" x1="0" y1="0" x2="1" y2="1">
    <stop stop-color="#FFFFFF" stop-opacity="0.94"/><stop offset="0.5" stop-color="#FFD7D9" stop-opacity="0.8"/><stop offset="1" stop-color="#FA4D56" stop-opacity="0.42"/>
  </linearGradient>
  <linearGradient id="ceph-erasure-network" x1="0" y1="0" x2="1" y2="0">
    <stop stop-color="#0F62FE"/><stop offset="0.5" stop-color="#FA4D56"/><stop offset="1" stop-color="#08BDBA"/>
  </linearGradient>
  <radialGradient id="ceph-erasure-halo" cx="0" cy="0" r="1" gradientTransform="translate(248 136) rotate(90) scale(126 218)" gradientUnits="userSpaceOnUse">
    <stop stop-color="#D0E2FF" stop-opacity="0.38"/><stop offset="0.55" stop-color="#D9FBFB" stop-opacity="0.13"/><stop offset="1" stop-color="#FFFFFF" stop-opacity="0"/>
  </radialGradient>
  <filter id="ceph-erasure-shadow" x="-35%" y="-70%" width="170%" height="240%" color-interpolation-filters="sRGB"><feGaussianBlur stdDeviation="5"/></filter>
  <filter id="ceph-erasure-soft-shadow" x="-60%" y="-80%" width="220%" height="260%" color-interpolation-filters="sRGB"><feDropShadow dx="0" dy="3" stdDeviation="2.5" flood-color="#525252" flood-opacity="0.18"/></filter>
  <marker id="ceph-erasure-arrow" markerWidth="8" markerHeight="8" refX="6" refY="4" orient="auto" markerUnits="strokeWidth"><path d="M0 0L8 4L0 8L2.2 4Z" fill="#0F62FE"/></marker>
  <marker id="ceph-erasure-arrow-cyan" markerWidth="8" markerHeight="8" refX="6" refY="4" orient="auto" markerUnits="strokeWidth"><path d="M0 0L8 4L0 8L2.2 4Z" fill="#08BDBA"/></marker>
</defs>
<rect width="496" height="268" fill="url(#ceph-erasure-halo)"/>

<g opacity="1">
  <polygon points="264,193.02 419.1,230 264,266.98 108.9,230" fill="#6F6F6F" opacity="0.15" filter="url(#ceph-erasure-shadow)"/>
  <polygon points="99,213 264,256 264,267 99,224" fill="url(#ceph-erasure-surface-left)"/>
  <polygon points="264,256 429,213 429,224 264,267" fill="url(#ceph-erasure-surface-right)"/>
  <polygon points="264,170 429,213 264,256 99,213" fill="url(#ceph-erasure-surface-top)" stroke="#DDE4EC" stroke-width="0.7"/>
</g>
<g opacity="0.9">
  <polygon points="49,112 83,132 83,182 49,162" fill="url(#ceph-erasure-red-left)" stroke="#FFFFFF" stroke-opacity="0.44" stroke-width="0.55"/>
  <polygon points="83,132 117,112 117,162 83,182" fill="url(#ceph-erasure-red-right)" stroke="#FFFFFF" stroke-opacity="0.35" stroke-width="0.55"/>
  <polygon points="83,92 117,112 83,132 49,112" fill="url(#ceph-erasure-red-top)" stroke="#FFFFFF" stroke-opacity="0.7" stroke-width="0.65"/>
</g>
<path d="M57 126L83 141L109 126" stroke="#FFFFFF" stroke-width="1.1"/><circle cx="83" cy="116" r="8" fill="#FFFFFF" fill-opacity="0.9"/><path d="M79 116H87M83 112V120" stroke="#FA4D56" stroke-width="1.4"/>
<path d="M119 137H156" stroke="#0F62FE" stroke-width="1.5" marker-end="url(#ceph-erasure-arrow)"/>
<g transform="translate(205 119)"><g filter="url(#ceph-erasure-soft-shadow)">
  <circle cx="0" cy="0" r="24" fill="url(#ceph-erasure-glass-red)" stroke="#FA4D56" stroke-width="1.2"/>
  <circle cx="0" cy="0" r="18.24" fill="#FFFFFF" fill-opacity="0.76" stroke="#FA4D56" stroke-opacity="0.7" stroke-width="0.8"/>
  <path d="M0 0L0 -15.84" stroke="#FA4D56" stroke-width="1.32" stroke-linecap="round"/>
  <path d="M0 0L13.72 -7.92" stroke="#FA4D56" stroke-width="1.32" stroke-linecap="round"/>
  <path d="M0 0L13.72 7.92" stroke="#FA4D56" stroke-width="1.32" stroke-linecap="round"/>
  <path d="M0 0L0 15.84" stroke="#FA4D56" stroke-width="1.32" stroke-linecap="round"/>
  <path d="M0 0L-13.72 7.92" stroke="#FA4D56" stroke-width="1.32" stroke-linecap="round"/>
  <path d="M0 0L-13.72 -7.92" stroke="#FA4D56" stroke-width="1.32" stroke-linecap="round"/>
  <circle cx="0" cy="0" r="6" fill="#FA4D56"/>
  <circle cx="0" cy="0" r="2.4" fill="#FFFFFF"/>
  <circle cx="0" cy="-15.84" r="2.76" fill="#FFFFFF" stroke="#FA4D56" stroke-width="1.32"/>
  <circle cx="13.72" cy="-7.92" r="2.76" fill="#FFFFFF" stroke="#FA4D56" stroke-width="1.32"/>
  <circle cx="13.72" cy="7.92" r="2.76" fill="#FFFFFF" stroke="#FA4D56" stroke-width="1.32"/>
  <circle cx="0" cy="15.84" r="2.76" fill="#FFFFFF" stroke="#FA4D56" stroke-width="1.32"/>
  <circle cx="-13.72" cy="7.92" r="2.76" fill="#FFFFFF" stroke="#FA4D56" stroke-width="1.32"/>
  <circle cx="-13.72" cy="-7.92" r="2.76" fill="#FFFFFF" stroke="#FA4D56" stroke-width="1.32"/>
</g></g>
<path d="M229 119H270" stroke="#FA4D56" stroke-width="1.4" marker-end="url(#ceph-erasure-arrow)"/>
<g transform="translate(305 119)">
  <rect x="-35" y="-25" width="70" height="50" rx="7" fill="url(#ceph-erasure-glass-blue)" stroke="#0F62FE" stroke-width="1"/>
  <path d="M-21 -10H21M-21 0H21M-21 10H21M-10 -18V18M10 -18V18" stroke="#78A9FF" stroke-width="0.9"/>
  <circle cx="-20" cy="-10" r="3" fill="#0F62FE"/><circle cx="0" cy="0" r="3" fill="#FA4D56"/><circle cx="20" cy="10" r="3" fill="#08BDBA"/>
</g>
<path d="M305 145C294 158 279 163 264 168M305 145C321 156 343 161 353 168" stroke="url(#ceph-erasure-network)" stroke-width="1.1" stroke-dasharray="3 4"/>
<g>
<g opacity="0.9">
  <polygon points="140.55,172 151,178.18 151,193.38 140.55,187.2" fill="url(#ceph-erasure-blue-left)" stroke="#FFFFFF" stroke-opacity="0.44" stroke-width="0.55"/>
  <polygon points="151,178.18 161.45,172 161.45,187.2 151,193.38" fill="url(#ceph-erasure-blue-right)" stroke="#FFFFFF" stroke-opacity="0.35" stroke-width="0.55"/>
  <polygon points="151,165.82 161.45,172 151,178.18 140.55,172" fill="url(#ceph-erasure-blue-top)" stroke="#FFFFFF" stroke-opacity="0.7" stroke-width="0.65"/>
</g>
  <circle cx="155.6" cy="181.37" r="1.52" fill="#FFFFFF" fill-opacity="0.92"/>
  <path d="M145.98 183.32L150.37 186.08" stroke="#FFFFFF" stroke-opacity="0.8" stroke-width="0.76"/>
  <circle cx="151" cy="170.76" r="1.61" fill="#FFFFFF" fill-opacity="0.8"/>
</g>
<g>
<g opacity="0.9">
  <polygon points="185.55,195 196,201.18 196,216.38 185.55,210.2" fill="url(#ceph-erasure-cyan-left)" stroke="#FFFFFF" stroke-opacity="0.44" stroke-width="0.55"/>
  <polygon points="196,201.18 206.45,195 206.45,210.2 196,216.38" fill="url(#ceph-erasure-cyan-right)" stroke="#FFFFFF" stroke-opacity="0.35" stroke-width="0.55"/>
  <polygon points="196,188.82 206.45,195 196,201.18 185.55,195" fill="url(#ceph-erasure-cyan-top)" stroke="#FFFFFF" stroke-opacity="0.7" stroke-width="0.65"/>
</g>
  <circle cx="200.6" cy="204.37" r="1.52" fill="#FFFFFF" fill-opacity="0.92"/>
  <path d="M190.98 206.32L195.37 209.08" stroke="#FFFFFF" stroke-opacity="0.8" stroke-width="0.76"/>
  <circle cx="196" cy="193.76" r="1.61" fill="#FFFFFF" fill-opacity="0.8"/>
</g>
<g>
<g opacity="0.9">
  <polygon points="230.55,172 241,178.18 241,193.38 230.55,187.2" fill="url(#ceph-erasure-purple-left)" stroke="#FFFFFF" stroke-opacity="0.44" stroke-width="0.55"/>
  <polygon points="241,178.18 251.45,172 251.45,187.2 241,193.38" fill="url(#ceph-erasure-purple-right)" stroke="#FFFFFF" stroke-opacity="0.35" stroke-width="0.55"/>
  <polygon points="241,165.82 251.45,172 241,178.18 230.55,172" fill="url(#ceph-erasure-purple-top)" stroke="#FFFFFF" stroke-opacity="0.7" stroke-width="0.65"/>
</g>
  <circle cx="245.6" cy="181.37" r="1.52" fill="#FFFFFF" fill-opacity="0.92"/>
  <path d="M235.98 183.32L240.37 186.08" stroke="#FFFFFF" stroke-opacity="0.8" stroke-width="0.76"/>
  <circle cx="241" cy="170.76" r="1.61" fill="#FFFFFF" fill-opacity="0.8"/>
</g>
<g>
<g opacity="0.9">
  <polygon points="275.55,195 286,201.18 286,216.38 275.55,210.2" fill="url(#ceph-erasure-red-left)" stroke="#FFFFFF" stroke-opacity="0.44" stroke-width="0.55"/>
  <polygon points="286,201.18 296.45,195 296.45,210.2 286,216.38" fill="url(#ceph-erasure-red-right)" stroke="#FFFFFF" stroke-opacity="0.35" stroke-width="0.55"/>
  <polygon points="286,188.82 296.45,195 286,201.18 275.55,195" fill="url(#ceph-erasure-red-top)" stroke="#FFFFFF" stroke-opacity="0.7" stroke-width="0.65"/>
</g>
  <circle cx="290.6" cy="204.37" r="1.52" fill="#FFFFFF" fill-opacity="0.92"/>
  <path d="M280.98 206.32L285.37 209.08" stroke="#FFFFFF" stroke-opacity="0.8" stroke-width="0.76"/>
  <circle cx="286" cy="193.76" r="1.61" fill="#FFFFFF" fill-opacity="0.8"/>
</g>
<g>
<g opacity="0.9">
  <polygon points="320.55,172 331,178.18 331,193.38 320.55,187.2" fill="url(#ceph-erasure-orange-left)" stroke="#FFFFFF" stroke-opacity="0.44" stroke-width="0.55"/>
  <polygon points="331,178.18 341.45,172 341.45,187.2 331,193.38" fill="url(#ceph-erasure-orange-right)" stroke="#FFFFFF" stroke-opacity="0.35" stroke-width="0.55"/>
  <polygon points="331,165.82 341.45,172 331,178.18 320.55,172" fill="url(#ceph-erasure-orange-top)" stroke="#FFFFFF" stroke-opacity="0.7" stroke-width="0.65"/>
</g>
  <circle cx="335.6" cy="181.37" r="1.52" fill="#FFFFFF" fill-opacity="0.92"/>
  <path d="M325.98 183.32L330.37 186.08" stroke="#FFFFFF" stroke-opacity="0.8" stroke-width="0.76"/>
  <circle cx="331" cy="170.76" r="1.61" fill="#FFFFFF" fill-opacity="0.8"/>
</g>
<g>
<g opacity="0.9">
  <polygon points="365.55,195 376,201.18 376,216.38 365.55,210.2" fill="url(#ceph-erasure-green-left)" stroke="#FFFFFF" stroke-opacity="0.44" stroke-width="0.55"/>
  <polygon points="376,201.18 386.45,195 386.45,210.2 376,216.38" fill="url(#ceph-erasure-green-right)" stroke="#FFFFFF" stroke-opacity="0.35" stroke-width="0.55"/>
  <polygon points="376,188.82 386.45,195 376,201.18 365.55,195" fill="url(#ceph-erasure-green-top)" stroke="#FFFFFF" stroke-opacity="0.7" stroke-width="0.65"/>
</g>
  <circle cx="380.6" cy="204.37" r="1.52" fill="#FFFFFF" fill-opacity="0.92"/>
  <path d="M370.98 206.32L375.37 209.08" stroke="#FFFFFF" stroke-opacity="0.8" stroke-width="0.76"/>
  <circle cx="376" cy="193.76" r="1.61" fill="#FFFFFF" fill-opacity="0.8"/>
</g>
<g opacity="0.78"><path d="M139 232H389" stroke="#A6C8FF" stroke-width="0.8"/><circle cx="151" cy="232" r="2" fill="#0F62FE"/><circle cx="241" cy="232" r="2" fill="#8A3FFC"/><circle cx="331" cy="232" r="2" fill="#FF832B"/><circle cx="376" cy="232" r="2" fill="#42BE65"/></g>

</svg>
