<svg width="496" height="268" viewBox="0 0 496 268" fill="none" xmlns="http://www.w3.org/2000/svg" role="img" aria-labelledby="k8s-multicluster-title k8s-multicluster-description">
<title id="k8s-multicluster-title">Kubernetes multi-cluster federation</title>
<desc id="k8s-multicluster-description">Three isometric Kubernetes clusters federated through a global control plane and resilient network links.</desc>

<defs>
  <linearGradient id="k8s-multicluster-surface-top" x1="0" y1="0" x2="1" y2="1">
    <stop stop-color="#FFFFFF"/>
    <stop offset="0.55" stop-color="#F4F7FB"/>
    <stop offset="1" stop-color="#E0E7EF"/>
  </linearGradient>
  <linearGradient id="k8s-multicluster-surface-left" x1="0" y1="0" x2="0.9" y2="1">
    <stop stop-color="#E8EDF3"/>
    <stop offset="1" stop-color="#C6CFD9"/>
  </linearGradient>
  <linearGradient id="k8s-multicluster-surface-right" x1="0" y1="0" x2="1" y2="1">
    <stop stop-color="#DDE4EC"/>
    <stop offset="1" stop-color="#AEB8C4"/>
  </linearGradient>
  <linearGradient id="k8s-multicluster-blue-top" x1="0" y1="0" x2="1" y2="1">
    <stop stop-color="#D0E2FF"/>
    <stop offset="0.46" stop-color="#78A9FF"/>
    <stop offset="1" stop-color="#0F62FE"/>
  </linearGradient>
  <linearGradient id="k8s-multicluster-blue-left" x1="0" y1="0" x2="0.8" y2="1">
    <stop stop-color="#A6C8FF" stop-opacity="0.86"/>
    <stop offset="1" stop-color="#4589FF" stop-opacity="0.58"/>
  </linearGradient>
  <linearGradient id="k8s-multicluster-blue-right" x1="0" y1="0" x2="1" y2="1">
    <stop stop-color="#4589FF" stop-opacity="0.86"/>
    <stop offset="1" stop-color="#002D9C" stop-opacity="0.74"/>
  </linearGradient>
  <linearGradient id="k8s-multicluster-cyan-top" x1="0" y1="0" x2="1" y2="1">
    <stop stop-color="#D9FBFB"/>
    <stop offset="0.45" stop-color="#3DDBD9"/>
    <stop offset="1" stop-color="#08BDBA"/>
  </linearGradient>
  <linearGradient id="k8s-multicluster-cyan-left" x1="0" y1="0" x2="0.8" y2="1">
    <stop stop-color="#9EF0F0" stop-opacity="0.88"/>
    <stop offset="1" stop-color="#08BDBA" stop-opacity="0.62"/>
  </linearGradient>
  <linearGradient id="k8s-multicluster-cyan-right" x1="0" y1="0" x2="1" y2="1">
    <stop stop-color="#08BDBA" stop-opacity="0.9"/>
    <stop offset="1" stop-color="#005D5D" stop-opacity="0.76"/>
  </linearGradient>
  <linearGradient id="k8s-multicluster-purple-top" x1="0" y1="0" x2="1" y2="1">
    <stop stop-color="#E8DAFF"/>
    <stop offset="0.52" stop-color="#A56EFF"/>
    <stop offset="1" stop-color="#6929C4"/>
  </linearGradient>
  <linearGradient id="k8s-multicluster-purple-left" x1="0" y1="0" x2="1" y2="1">
    <stop stop-color="#D4BBFF" stop-opacity="0.88"/>
    <stop offset="1" stop-color="#8A3FFC" stop-opacity="0.62"/>
  </linearGradient>
  <linearGradient id="k8s-multicluster-purple-right" x1="0" y1="0" x2="1" y2="1">
    <stop stop-color="#8A3FFC" stop-opacity="0.88"/>
    <stop offset="1" stop-color="#491D8B" stop-opacity="0.76"/>
  </linearGradient>
  <linearGradient id="k8s-multicluster-green-top" x1="0" y1="0" x2="1" y2="1">
    <stop stop-color="#DEFBE6"/>
    <stop offset="0.5" stop-color="#42BE65"/>
    <stop offset="1" stop-color="#198038"/>
  </linearGradient>
  <linearGradient id="k8s-multicluster-green-left" x1="0" y1="0" x2="1" y2="1">
    <stop stop-color="#A7F0BA" stop-opacity="0.9"/>
    <stop offset="1" stop-color="#24A148" stop-opacity="0.62"/>
  </linearGradient>
  <linearGradient id="k8s-multicluster-green-right" x1="0" y1="0" x2="1" y2="1">
    <stop stop-color="#24A148" stop-opacity="0.88"/>
    <stop offset="1" stop-color="#0E6027" stop-opacity="0.76"/>
  </linearGradient>
  <linearGradient id="k8s-multicluster-orange-top" x1="0" y1="0" x2="1" y2="1">
    <stop stop-color="#FFF2E8"/>
    <stop offset="0.52" stop-color="#FF832B"/>
    <stop offset="1" stop-color="#BA4E00"/>
  </linearGradient>
  <linearGradient id="k8s-multicluster-orange-left" x1="0" y1="0" x2="1" y2="1">
    <stop stop-color="#FFD9BE" stop-opacity="0.9"/>
    <stop offset="1" stop-color="#FF832B" stop-opacity="0.62"/>
  </linearGradient>
  <linearGradient id="k8s-multicluster-orange-right" x1="0" y1="0" x2="1" y2="1">
    <stop stop-color="#FF832B" stop-opacity="0.88"/>
    <stop offset="1" stop-color="#8A3800" stop-opacity="0.78"/>
  </linearGradient>
  <linearGradient id="k8s-multicluster-glass-blue" x1="0" y1="0" x2="1" y2="1">
    <stop stop-color="#FFFFFF" stop-opacity="0.92"/>
    <stop offset="0.45" stop-color="#D0E2FF" stop-opacity="0.78"/>
    <stop offset="1" stop-color="#78A9FF" stop-opacity="0.48"/>
  </linearGradient>
  <linearGradient id="k8s-multicluster-glass-cyan" x1="0" y1="0" x2="1" y2="1">
    <stop stop-color="#FFFFFF" stop-opacity="0.94"/>
    <stop offset="0.5" stop-color="#D9FBFB" stop-opacity="0.78"/>
    <stop offset="1" stop-color="#3DDBD9" stop-opacity="0.48"/>
  </linearGradient>
  <linearGradient id="k8s-multicluster-network" x1="0" y1="0" x2="1" y2="0">
    <stop stop-color="#0F62FE"/>
    <stop offset="0.48" stop-color="#8A3FFC"/>
    <stop offset="1" stop-color="#08BDBA"/>
  </linearGradient>
  <linearGradient id="k8s-multicluster-cloud" x1="0" y1="0" x2="1" y2="1">
    <stop stop-color="#EDF5FF"/>
    <stop offset="0.52" stop-color="#A6C8FF"/>
    <stop offset="1" stop-color="#3DDBD9"/>
  </linearGradient>
  <radialGradient id="k8s-multicluster-halo" cx="0" cy="0" r="1" gradientTransform="translate(248 132) rotate(90) scale(126 218)" gradientUnits="userSpaceOnUse">
    <stop stop-color="#D0E2FF" stop-opacity="0.42"/>
    <stop offset="0.58" stop-color="#D9FBFB" stop-opacity="0.12"/>
    <stop offset="1" stop-color="#FFFFFF" stop-opacity="0"/>
  </radialGradient>
  <filter id="k8s-multicluster-shadow" x="-30%" y="-60%" width="160%" height="220%" color-interpolation-filters="sRGB">
    <feGaussianBlur stdDeviation="5"/>
  </filter>
  <filter id="k8s-multicluster-soft-shadow" x="-50%" y="-80%" width="200%" height="260%" color-interpolation-filters="sRGB">
    <feDropShadow dx="0" dy="3" stdDeviation="2.4" flood-color="#525252" flood-opacity="0.18"/>
  </filter>
  <filter id="k8s-multicluster-glow" x="-120%" y="-120%" width="340%" height="340%" color-interpolation-filters="sRGB">
    <feGaussianBlur stdDeviation="3.2" result="blur"/>
    <feMerge><feMergeNode in="blur"/><feMergeNode in="SourceGraphic"/></feMerge>
  </filter>
  <marker id="k8s-multicluster-arrow" markerWidth="8" markerHeight="8" refX="6" refY="4" orient="auto" markerUnits="strokeWidth">
    <path d="M0 0L8 4L0 8L2.2 4Z" fill="#0F62FE"/>
  </marker>
</defs>
<rect width="496" height="268" fill="url(#k8s-multicluster-halo)"/>

<path d="M104 166C139 86 204 70 248 79C294 70 359 86 392 166" stroke="url(#k8s-multicluster-network)" stroke-width="1.45" stroke-linecap="round" stroke-dasharray="4 5"/>
<path d="M105 166C171 222 325 222 391 166" stroke="#08BDBA" stroke-opacity="0.72" stroke-width="1.2" stroke-linecap="round"/>
<g>
<g opacity="1">
  <polygon points="104,173.4 158.48,198.72 104,224.04 49.52,198.72" fill="#6F6F6F" opacity="0.16" filter="url(#k8s-multicluster-shadow)"/>
  <polygon points="46.04,184.44 104,213.88 104,222.16 46.04,192.72" fill="url(#k8s-multicluster-surface-left)"/>
  <polygon points="104,213.88 161.96,184.44 161.96,192.72 104,222.16" fill="url(#k8s-multicluster-surface-right)"/>
  <polygon points="104,155 161.96,184.44 104,213.88 46.04,184.44" fill="url(#k8s-multicluster-surface-top)" stroke="#DDE4EC" stroke-width="0.7"/>
</g>
<g opacity="0.86">
  <polygon points="81.92,155 104,167.88 104,199.16 81.92,186.28" fill="url(#k8s-multicluster-cyan-left)" stroke="#FFFFFF" stroke-opacity="0.4" stroke-width="0.5"/>
  <polygon points="104,167.88 126.08,155 126.08,186.28 104,199.16" fill="url(#k8s-multicluster-cyan-right)" stroke="#FFFFFF" stroke-opacity="0.32" stroke-width="0.5"/>
  <polygon points="104,142.12 126.08,155 104,167.88 81.92,155" fill="url(#k8s-multicluster-cyan-top)" stroke="#FFFFFF" stroke-opacity="0.62" stroke-width="0.6"/>
</g>
<g filter="url(#k8s-multicluster-soft-shadow)">
  <polygon points="104,139.36 113.35,143.86 115.66,153.98 109.19,162.1 98.81,162.1 92.34,153.98 94.65,143.86" fill="url(#k8s-multicluster-glass-blue)" stroke="#007D79" stroke-width="1.1"/>
  <circle cx="104" cy="151.32" r="8.73" fill="#FFFFFF" fill-opacity="0.86" stroke="#007D79" stroke-width="1"/>
  <path d="M104 147.97L104 143.19" stroke="#007D79" stroke-width="0.9" stroke-linecap="round"/>
  <path d="M106.62 149.23L110.36 146.25" stroke="#007D79" stroke-width="0.9" stroke-linecap="round"/>
  <path d="M107.26 152.07L111.93 153.13" stroke="#007D79" stroke-width="0.9" stroke-linecap="round"/>
  <path d="M105.45 154.34L107.53 158.65" stroke="#007D79" stroke-width="0.9" stroke-linecap="round"/>
  <path d="M102.55 154.34L100.47 158.65" stroke="#007D79" stroke-width="0.9" stroke-linecap="round"/>
  <path d="M100.74 152.07L96.07 153.13" stroke="#007D79" stroke-width="0.9" stroke-linecap="round"/>
  <path d="M101.38 149.23L97.64 146.25" stroke="#007D79" stroke-width="0.9" stroke-linecap="round"/>
  <circle cx="104" cy="151.32" r="2.87" fill="#007D79"/>
  <circle cx="104" cy="151.32" r="1.2" fill="#FFFFFF"/>
  <circle cx="104" cy="143.19" r="1.26" fill="#FFFFFF" stroke="#007D79" stroke-width="0.66"/>
  <circle cx="110.36" cy="146.25" r="1.26" fill="#FFFFFF" stroke="#007D79" stroke-width="0.66"/>
  <circle cx="111.93" cy="153.13" r="1.26" fill="#FFFFFF" stroke="#007D79" stroke-width="0.66"/>
  <circle cx="107.53" cy="158.65" r="1.26" fill="#FFFFFF" stroke="#007D79" stroke-width="0.66"/>
  <circle cx="100.47" cy="158.65" r="1.26" fill="#FFFFFF" stroke="#007D79" stroke-width="0.66"/>
  <circle cx="96.07" cy="153.13" r="1.26" fill="#FFFFFF" stroke="#007D79" stroke-width="0.66"/>
  <circle cx="97.64" cy="146.25" r="1.26" fill="#FFFFFF" stroke="#007D79" stroke-width="0.66"/>
</g>
<g>
<g opacity="1">
  <polygon points="66.83,178 72.72,181.41 72.72,190.09 66.83,186.68" fill="url(#k8s-multicluster-cyan-left)" stroke="#FFFFFF" stroke-opacity="0.4" stroke-width="0.5"/>
  <polygon points="72.72,181.41 78.61,178 78.61,186.68 72.72,190.09" fill="url(#k8s-multicluster-cyan-right)" stroke="#FFFFFF" stroke-opacity="0.32" stroke-width="0.5"/>
  <polygon points="72.72,174.59 78.61,178 72.72,181.41 66.83,178" fill="url(#k8s-multicluster-cyan-top)" stroke="#FFFFFF" stroke-opacity="0.62" stroke-width="0.6"/>
</g>
  <circle cx="75.55" cy="182.93" r="0.96" fill="#42BE65" stroke="#FFFFFF" stroke-width="0.7"/>
  <path d="M70.13 184.38L72.48 186.17" stroke="#FFFFFF" stroke-opacity="0.82" stroke-width="0.5" stroke-linecap="round"/>
</g>
<g>
<g opacity="1">
  <polygon points="98.11,194.56 104,197.97 104,206.65 98.11,203.24" fill="url(#k8s-multicluster-cyan-left)" stroke="#FFFFFF" stroke-opacity="0.4" stroke-width="0.5"/>
  <polygon points="104,197.97 109.89,194.56 109.89,203.24 104,206.65" fill="url(#k8s-multicluster-cyan-right)" stroke="#FFFFFF" stroke-opacity="0.32" stroke-width="0.5"/>
  <polygon points="104,191.15 109.89,194.56 104,197.97 98.11,194.56" fill="url(#k8s-multicluster-cyan-top)" stroke="#FFFFFF" stroke-opacity="0.62" stroke-width="0.6"/>
</g>
  <circle cx="106.83" cy="199.49" r="0.96" fill="#42BE65" stroke="#FFFFFF" stroke-width="0.7"/>
  <path d="M101.41 200.94L103.76 202.73" stroke="#FFFFFF" stroke-opacity="0.82" stroke-width="0.5" stroke-linecap="round"/>
</g>
<g>
<g opacity="1">
  <polygon points="129.39,178 135.28,181.41 135.28,190.09 129.39,186.68" fill="url(#k8s-multicluster-cyan-left)" stroke="#FFFFFF" stroke-opacity="0.4" stroke-width="0.5"/>
  <polygon points="135.28,181.41 141.17,178 141.17,186.68 135.28,190.09" fill="url(#k8s-multicluster-cyan-right)" stroke="#FFFFFF" stroke-opacity="0.32" stroke-width="0.5"/>
  <polygon points="135.28,174.59 141.17,178 135.28,181.41 129.39,178" fill="url(#k8s-multicluster-cyan-top)" stroke="#FFFFFF" stroke-opacity="0.62" stroke-width="0.6"/>
</g>
  <circle cx="138.11" cy="182.93" r="0.96" fill="#42BE65" stroke="#FFFFFF" stroke-width="0.7"/>
  <path d="M132.69 184.38L135.04 186.17" stroke="#FFFFFF" stroke-opacity="0.82" stroke-width="0.5" stroke-linecap="round"/>
</g>
</g>
<g>
<g opacity="1">
  <polygon points="248,192.75 308.4,220.82 248,248.89 187.6,220.82" fill="#6F6F6F" opacity="0.16" filter="url(#k8s-multicluster-shadow)"/>
  <polygon points="183.74,205.64 248,238.28 248,247.46 183.74,214.82" fill="url(#k8s-multicluster-surface-left)"/>
  <polygon points="248,238.28 312.26,205.64 312.26,214.82 248,247.46" fill="url(#k8s-multicluster-surface-right)"/>
  <polygon points="248,173 312.26,205.64 248,238.28 183.74,205.64" fill="url(#k8s-multicluster-surface-top)" stroke="#DDE4EC" stroke-width="0.7"/>
</g>
<g opacity="0.86">
  <polygon points="223.52,173 248,187.28 248,221.96 223.52,207.68" fill="url(#k8s-multicluster-blue-left)" stroke="#FFFFFF" stroke-opacity="0.4" stroke-width="0.5"/>
  <polygon points="248,187.28 272.48,173 272.48,207.68 248,221.96" fill="url(#k8s-multicluster-blue-right)" stroke="#FFFFFF" stroke-opacity="0.32" stroke-width="0.5"/>
  <polygon points="248,158.72 272.48,173 248,187.28 223.52,173" fill="url(#k8s-multicluster-blue-top)" stroke="#FFFFFF" stroke-opacity="0.62" stroke-width="0.6"/>
</g>
<g filter="url(#k8s-multicluster-soft-shadow)">
  <polygon points="248,155.66 258.37,160.65 260.93,171.87 253.75,180.87 242.25,180.87 235.07,171.87 237.63,160.65" fill="url(#k8s-multicluster-glass-blue)" stroke="#0F62FE" stroke-width="1.1"/>
  <circle cx="248" cy="168.92" r="9.68" fill="#FFFFFF" fill-opacity="0.86" stroke="#0F62FE" stroke-width="1"/>
  <path d="M248 165.21L248 159.9" stroke="#0F62FE" stroke-width="0.99" stroke-linecap="round"/>
  <path d="M250.9 166.61L255.05 163.3" stroke="#0F62FE" stroke-width="0.99" stroke-linecap="round"/>
  <path d="M251.62 169.75L256.79 170.93" stroke="#0F62FE" stroke-width="0.99" stroke-linecap="round"/>
  <path d="M249.61 172.27L251.91 177.04" stroke="#0F62FE" stroke-width="0.99" stroke-linecap="round"/>
  <path d="M246.39 172.27L244.09 177.04" stroke="#0F62FE" stroke-width="0.99" stroke-linecap="round"/>
  <path d="M244.38 169.75L239.21 170.93" stroke="#0F62FE" stroke-width="0.99" stroke-linecap="round"/>
  <path d="M245.1 166.61L240.95 163.3" stroke="#0F62FE" stroke-width="0.99" stroke-linecap="round"/>
  <circle cx="248" cy="168.92" r="3.18" fill="#0F62FE"/>
  <circle cx="248" cy="168.92" r="1.33" fill="#FFFFFF"/>
  <circle cx="248" cy="159.9" r="1.39" fill="#FFFFFF" stroke="#0F62FE" stroke-width="0.73"/>
  <circle cx="255.05" cy="163.3" r="1.39" fill="#FFFFFF" stroke="#0F62FE" stroke-width="0.73"/>
  <circle cx="256.79" cy="170.93" r="1.39" fill="#FFFFFF" stroke="#0F62FE" stroke-width="0.73"/>
  <circle cx="251.91" cy="177.04" r="1.39" fill="#FFFFFF" stroke="#0F62FE" stroke-width="0.73"/>
  <circle cx="244.09" cy="177.04" r="1.39" fill="#FFFFFF" stroke="#0F62FE" stroke-width="0.73"/>
  <circle cx="239.21" cy="170.93" r="1.39" fill="#FFFFFF" stroke="#0F62FE" stroke-width="0.73"/>
  <circle cx="240.95" cy="163.3" r="1.39" fill="#FFFFFF" stroke="#0F62FE" stroke-width="0.73"/>
</g>
<g>
<g opacity="1">
  <polygon points="207.43,198.5 213.32,201.91 213.32,210.59 207.43,207.18" fill="url(#k8s-multicluster-blue-left)" stroke="#FFFFFF" stroke-opacity="0.4" stroke-width="0.5"/>
  <polygon points="213.32,201.91 219.21,198.5 219.21,207.18 213.32,210.59" fill="url(#k8s-multicluster-blue-right)" stroke="#FFFFFF" stroke-opacity="0.32" stroke-width="0.5"/>
  <polygon points="213.32,195.09 219.21,198.5 213.32,201.91 207.43,198.5" fill="url(#k8s-multicluster-blue-top)" stroke="#FFFFFF" stroke-opacity="0.62" stroke-width="0.6"/>
</g>
  <circle cx="216.15" cy="203.43" r="0.96" fill="#42BE65" stroke="#FFFFFF" stroke-width="0.7"/>
  <path d="M210.73 204.88L213.08 206.67" stroke="#FFFFFF" stroke-opacity="0.82" stroke-width="0.5" stroke-linecap="round"/>
</g>
<g>
<g opacity="1">
  <polygon points="242.11,216.86 248,220.27 248,228.95 242.11,225.54" fill="url(#k8s-multicluster-blue-left)" stroke="#FFFFFF" stroke-opacity="0.4" stroke-width="0.5"/>
  <polygon points="248,220.27 253.89,216.86 253.89,225.54 248,228.95" fill="url(#k8s-multicluster-blue-right)" stroke="#FFFFFF" stroke-opacity="0.32" stroke-width="0.5"/>
  <polygon points="248,213.45 253.89,216.86 248,220.27 242.11,216.86" fill="url(#k8s-multicluster-blue-top)" stroke="#FFFFFF" stroke-opacity="0.62" stroke-width="0.6"/>
</g>
  <circle cx="250.83" cy="221.79" r="0.96" fill="#42BE65" stroke="#FFFFFF" stroke-width="0.7"/>
  <path d="M245.41 223.24L247.76 225.03" stroke="#FFFFFF" stroke-opacity="0.82" stroke-width="0.5" stroke-linecap="round"/>
</g>
<g>
<g opacity="1">
  <polygon points="276.79,198.5 282.68,201.91 282.68,210.59 276.79,207.18" fill="url(#k8s-multicluster-blue-left)" stroke="#FFFFFF" stroke-opacity="0.4" stroke-width="0.5"/>
  <polygon points="282.68,201.91 288.57,198.5 288.57,207.18 282.68,210.59" fill="url(#k8s-multicluster-blue-right)" stroke="#FFFFFF" stroke-opacity="0.32" stroke-width="0.5"/>
  <polygon points="282.68,195.09 288.57,198.5 282.68,201.91 276.79,198.5" fill="url(#k8s-multicluster-blue-top)" stroke="#FFFFFF" stroke-opacity="0.62" stroke-width="0.6"/>
</g>
  <circle cx="285.51" cy="203.43" r="0.96" fill="#42BE65" stroke="#FFFFFF" stroke-width="0.7"/>
  <path d="M280.09 204.88L282.44 206.67" stroke="#FFFFFF" stroke-opacity="0.82" stroke-width="0.5" stroke-linecap="round"/>
</g>
</g>
<g>
<g opacity="1">
  <polygon points="392,173.4 446.48,198.72 392,224.04 337.52,198.72" fill="#6F6F6F" opacity="0.16" filter="url(#k8s-multicluster-shadow)"/>
  <polygon points="334.04,184.44 392,213.88 392,222.16 334.04,192.72" fill="url(#k8s-multicluster-surface-left)"/>
  <polygon points="392,213.88 449.96,184.44 449.96,192.72 392,222.16" fill="url(#k8s-multicluster-surface-right)"/>
  <polygon points="392,155 449.96,184.44 392,213.88 334.04,184.44" fill="url(#k8s-multicluster-surface-top)" stroke="#DDE4EC" stroke-width="0.7"/>
</g>
<g opacity="0.86">
  <polygon points="369.92,155 392,167.88 392,199.16 369.92,186.28" fill="url(#k8s-multicluster-purple-left)" stroke="#FFFFFF" stroke-opacity="0.4" stroke-width="0.5"/>
  <polygon points="392,167.88 414.08,155 414.08,186.28 392,199.16" fill="url(#k8s-multicluster-purple-right)" stroke="#FFFFFF" stroke-opacity="0.32" stroke-width="0.5"/>
  <polygon points="392,142.12 414.08,155 392,167.88 369.92,155" fill="url(#k8s-multicluster-purple-top)" stroke="#FFFFFF" stroke-opacity="0.62" stroke-width="0.6"/>
</g>
<g filter="url(#k8s-multicluster-soft-shadow)">
  <polygon points="392,139.36 401.35,143.86 403.66,153.98 397.19,162.1 386.81,162.1 380.34,153.98 382.65,143.86" fill="url(#k8s-multicluster-glass-blue)" stroke="#6929C4" stroke-width="1.1"/>
  <circle cx="392" cy="151.32" r="8.73" fill="#FFFFFF" fill-opacity="0.86" stroke="#6929C4" stroke-width="1"/>
  <path d="M392 147.97L392 143.19" stroke="#6929C4" stroke-width="0.9" stroke-linecap="round"/>
  <path d="M394.62 149.23L398.36 146.25" stroke="#6929C4" stroke-width="0.9" stroke-linecap="round"/>
  <path d="M395.26 152.07L399.93 153.13" stroke="#6929C4" stroke-width="0.9" stroke-linecap="round"/>
  <path d="M393.45 154.34L395.53 158.65" stroke="#6929C4" stroke-width="0.9" stroke-linecap="round"/>
  <path d="M390.55 154.34L388.47 158.65" stroke="#6929C4" stroke-width="0.9" stroke-linecap="round"/>
  <path d="M388.74 152.07L384.07 153.13" stroke="#6929C4" stroke-width="0.9" stroke-linecap="round"/>
  <path d="M389.38 149.23L385.64 146.25" stroke="#6929C4" stroke-width="0.9" stroke-linecap="round"/>
  <circle cx="392" cy="151.32" r="2.87" fill="#6929C4"/>
  <circle cx="392" cy="151.32" r="1.2" fill="#FFFFFF"/>
  <circle cx="392" cy="143.19" r="1.26" fill="#FFFFFF" stroke="#6929C4" stroke-width="0.66"/>
  <circle cx="398.36" cy="146.25" r="1.26" fill="#FFFFFF" stroke="#6929C4" stroke-width="0.66"/>
  <circle cx="399.93" cy="153.13" r="1.26" fill="#FFFFFF" stroke="#6929C4" stroke-width="0.66"/>
  <circle cx="395.53" cy="158.65" r="1.26" fill="#FFFFFF" stroke="#6929C4" stroke-width="0.66"/>
  <circle cx="388.47" cy="158.65" r="1.26" fill="#FFFFFF" stroke="#6929C4" stroke-width="0.66"/>
  <circle cx="384.07" cy="153.13" r="1.26" fill="#FFFFFF" stroke="#6929C4" stroke-width="0.66"/>
  <circle cx="385.64" cy="146.25" r="1.26" fill="#FFFFFF" stroke="#6929C4" stroke-width="0.66"/>
</g>
<g>
<g opacity="1">
  <polygon points="354.83,178 360.72,181.41 360.72,190.09 354.83,186.68" fill="url(#k8s-multicluster-purple-left)" stroke="#FFFFFF" stroke-opacity="0.4" stroke-width="0.5"/>
  <polygon points="360.72,181.41 366.61,178 366.61,186.68 360.72,190.09" fill="url(#k8s-multicluster-purple-right)" stroke="#FFFFFF" stroke-opacity="0.32" stroke-width="0.5"/>
  <polygon points="360.72,174.59 366.61,178 360.72,181.41 354.83,178" fill="url(#k8s-multicluster-purple-top)" stroke="#FFFFFF" stroke-opacity="0.62" stroke-width="0.6"/>
</g>
  <circle cx="363.55" cy="182.93" r="0.96" fill="#42BE65" stroke="#FFFFFF" stroke-width="0.7"/>
  <path d="M358.13 184.38L360.48 186.17" stroke="#FFFFFF" stroke-opacity="0.82" stroke-width="0.5" stroke-linecap="round"/>
</g>
<g>
<g opacity="1">
  <polygon points="386.11,194.56 392,197.97 392,206.65 386.11,203.24" fill="url(#k8s-multicluster-purple-left)" stroke="#FFFFFF" stroke-opacity="0.4" stroke-width="0.5"/>
  <polygon points="392,197.97 397.89,194.56 397.89,203.24 392,206.65" fill="url(#k8s-multicluster-purple-right)" stroke="#FFFFFF" stroke-opacity="0.32" stroke-width="0.5"/>
  <polygon points="392,191.15 397.89,194.56 392,197.97 386.11,194.56" fill="url(#k8s-multicluster-purple-top)" stroke="#FFFFFF" stroke-opacity="0.62" stroke-width="0.6"/>
</g>
  <circle cx="394.83" cy="199.49" r="0.96" fill="#42BE65" stroke="#FFFFFF" stroke-width="0.7"/>
  <path d="M389.41 200.94L391.76 202.73" stroke="#FFFFFF" stroke-opacity="0.82" stroke-width="0.5" stroke-linecap="round"/>
</g>
<g>
<g opacity="1">
  <polygon points="417.39,178 423.28,181.41 423.28,190.09 417.39,186.68" fill="url(#k8s-multicluster-purple-left)" stroke="#FFFFFF" stroke-opacity="0.4" stroke-width="0.5"/>
  <polygon points="423.28,181.41 429.17,178 429.17,186.68 423.28,190.09" fill="url(#k8s-multicluster-purple-right)" stroke="#FFFFFF" stroke-opacity="0.32" stroke-width="0.5"/>
  <polygon points="423.28,174.59 429.17,178 423.28,181.41 417.39,178" fill="url(#k8s-multicluster-purple-top)" stroke="#FFFFFF" stroke-opacity="0.62" stroke-width="0.6"/>
</g>
  <circle cx="426.11" cy="182.93" r="0.96" fill="#42BE65" stroke="#FFFFFF" stroke-width="0.7"/>
  <path d="M420.69 184.38L423.04 186.17" stroke="#FFFFFF" stroke-opacity="0.82" stroke-width="0.5" stroke-linecap="round"/>
</g>
</g>
<g transform="translate(248 59)">
  <circle cx="0" cy="0" r="37" fill="url(#k8s-multicluster-glass-blue)" stroke="#0F62FE" stroke-width="1.1"/>
  <circle cx="0" cy="0" r="29" fill="#FFFFFF" fill-opacity="0.74" stroke="#78A9FF" stroke-width="0.8"/>
  <ellipse cx="0" cy="0" rx="29" ry="12" stroke="#0F62FE" stroke-width="0.85"/>
  <ellipse cx="0" cy="0" rx="13" ry="29" stroke="#08BDBA" stroke-width="0.85"/>
  <path d="M-27 -10H27M-27 10H27" stroke="#A6C8FF" stroke-width="0.75"/>
  <g filter="url(#k8s-multicluster-soft-shadow)">
  <polygon points="0,-12 9.38,-7.48 11.7,2.67 5.21,10.81 -5.21,10.81 -11.7,2.67 -9.38,-7.48" fill="url(#k8s-multicluster-glass-blue)" stroke="#8A3FFC" stroke-width="1.1"/>
  <circle cx="0" cy="0" r="8.76" fill="#FFFFFF" fill-opacity="0.86" stroke="#8A3FFC" stroke-width="1"/>
  <path d="M0 -3.36L0 -8.16" stroke="#8A3FFC" stroke-width="0.9" stroke-linecap="round"/>
  <path d="M2.63 -2.09L6.38 -5.09" stroke="#8A3FFC" stroke-width="0.9" stroke-linecap="round"/>
  <path d="M3.28 0.75L7.96 1.82" stroke="#8A3FFC" stroke-width="0.9" stroke-linecap="round"/>
  <path d="M1.46 3.03L3.54 7.35" stroke="#8A3FFC" stroke-width="0.9" stroke-linecap="round"/>
  <path d="M-1.46 3.03L-3.54 7.35" stroke="#8A3FFC" stroke-width="0.9" stroke-linecap="round"/>
  <path d="M-3.28 0.75L-7.96 1.82" stroke="#8A3FFC" stroke-width="0.9" stroke-linecap="round"/>
  <path d="M-2.63 -2.09L-6.38 -5.09" stroke="#8A3FFC" stroke-width="0.9" stroke-linecap="round"/>
  <circle cx="0" cy="0" r="2.88" fill="#8A3FFC"/>
  <circle cx="0" cy="0" r="1.2" fill="#FFFFFF"/>
  <circle cx="0" cy="-8.16" r="1.26" fill="#FFFFFF" stroke="#8A3FFC" stroke-width="0.66"/>
  <circle cx="6.38" cy="-5.09" r="1.26" fill="#FFFFFF" stroke="#8A3FFC" stroke-width="0.66"/>
  <circle cx="7.96" cy="1.82" r="1.26" fill="#FFFFFF" stroke="#8A3FFC" stroke-width="0.66"/>
  <circle cx="3.54" cy="7.35" r="1.26" fill="#FFFFFF" stroke="#8A3FFC" stroke-width="0.66"/>
  <circle cx="-3.54" cy="7.35" r="1.26" fill="#FFFFFF" stroke="#8A3FFC" stroke-width="0.66"/>
  <circle cx="-7.96" cy="1.82" r="1.26" fill="#FFFFFF" stroke="#8A3FFC" stroke-width="0.66"/>
  <circle cx="-6.38" cy="-5.09" r="1.26" fill="#FFFFFF" stroke="#8A3FFC" stroke-width="0.66"/>
</g>
</g>
<path d="M248 96V127" stroke="#8A3FFC" stroke-width="1.2"/>
<circle cx="104" cy="166" r="3" fill="#08BDBA" stroke="#FFFFFF" stroke-width="1.2"/><circle cx="248" cy="127" r="3" fill="#8A3FFC" stroke="#FFFFFF" stroke-width="1.2"/><circle cx="392" cy="166" r="3" fill="#0F62FE" stroke="#FFFFFF" stroke-width="1.2"/>
<g opacity="0.86">
  <path d="M64 79C45 79 33 91 33 106C33 120 45 130 61 130H99C116 130 128 120 128 105C128 91 116 81 100 81C94 68 82 63 70 66C65 68 61 72 58 77" fill="url(#k8s-multicluster-cloud)" fill-opacity="0.7" stroke="#78A9FF" stroke-width="0.8"/>
  <path d="M368 84C354 84 344 94 344 107C344 119 354 128 368 128H433C450 128 462 117 462 102C462 87 450 76 434 76C427 62 411 57 397 64C390 67 385 73 382 81" fill="url(#k8s-multicluster-cloud)" fill-opacity="0.7" stroke="#78A9FF" stroke-width="0.8"/>
</g>
<path d="M99 121L113 143M382 122L377 143" stroke="#08BDBA" stroke-width="1" stroke-dasharray="3 4"/>
<g opacity="0.78">
  <circle cx="154" cy="104" r="2.4" fill="#08BDBA"/><circle cx="181" cy="87" r="2.4" fill="#0F62FE"/><circle cx="315" cy="87" r="2.4" fill="#8A3FFC"/><circle cx="342" cy="104" r="2.4" fill="#0F62FE"/>
</g>

</svg>
